<?xml version="1.0" encoding="UTF-8"?>
<svg id="Layer_2" xmlns="http://www.w3.org/2000/svg" viewBox="0 0 94.14 138.51">
  <defs>
    <style>
      .cls-1 {
        fill: #fff;
      }

      .cls-2 {
        fill: #222;
      }
    </style>
  </defs>
  <g id="Layer_2-2" data-name="Layer_2">
    <rect class="cls-2" width="94.14" height="138.51" rx="10.4" ry="10.4"/>
    <g id="Layer_1-2">
      <path class="cls-1" d="M56.4,116.57h-30.89c-3.55,0-6.43-2.89-6.43-6.43v-25c0-3.55,2.89-6.43,6.43-6.43h5.8c3.55,0,6.43,2.89,6.43,6.43v6.07c0,3.55,2.89,6.43,6.43,6.43h5.8c3.55,0,6.43-2.89,6.43-6.43v-43.93c0-3.55-2.89-6.43-6.43-6.43h-24.46c-3.55,0-6.43-2.89-6.43-6.43v-6.07c0-3.55,2.89-6.43,6.43-6.43h43.12c3.55,0,6.43,2.89,6.43,6.43v81.81c0,3.55-2.89,6.43-6.43,6.43h-12.23v-.02Z"/>
    </g>
  </g>
</svg>